<svg xmlns="http://www.w3.org/2000/svg" xml:space="preserve" width="400.88383" height="156.706749" viewBox="0 0 106.06718 41.461994">
  <path d="M66.240101 88.755649c-6.443258 1.683251-6.413435 8.197201-5.50242 11.375421 1.254954 3.70052 4.977037 5.65155 7.233846 8.65421 1.747825 2.22969 3.493899 4.73825 3.811843 7.62416.313459 1.93872-3.254391 4.27929-2.912443 1.23871 1.539938-5.52236 4.714347-10.43768 8.533158-14.6581 1.750559-1.75513 3.745203-3.501772 4.573644-5.910984-.376059-1.478846-1.973506 1.25933-2.387813 1.974656-1.64646 2.776028-2.652098 5.908508-2.750809 9.146188-.294178 4.96839 2.316622 10.32981 7.001003 12.37285 2.400647.98876 5.174814.80727 7.422429-.50333 4.606248-2.14225 6.924534-7.05068 8.464589-11.6046 1.097502-3.33659 1.775112-7.22852.15261-10.507406-2.135011-3.75505-12.232295-3.550236-12.432676 9.392896-.159182 3.12541.19954 6.36382 2.259924 8.92462 2.13905 1.8028 5.716934-3.71302 3.066593-2.31912-3.400828-.14379-.768732-14.652786 2.581203-13.998153 4.409936 2.008653-1.709452 19.682163-10.164889 16.889343-3.0739-1.51507-4.193272-5.22231-4.190243-8.42257.24763-2.80293.629829-6.01849 2.90623-7.95452 1.026312-.806919 3.748235-2.38286 2.852852-4.470743-1.453216-2.762575-6.348307-.44666-8.367846.870498-4.177469 2.416732-7.1136 6.396405-9.613591 10.422435-1.855374 3.23425-3.569778 6.71724-3.942673 10.46973-.149985 2.12469 1.313249 4.08216 3.321894 4.70744 3.004632 1.14997 6.162291-1.31784 7.053487-4.13262.920339-2.90353-.152993-6.0557-1.624697-8.58774-1.848485-3.39102-4.711127-6.04395-7.505845-8.63933-1.960542-1.66811-2.888543-6.797211.08171-8.198775 3.752829-1.770835 5.414714 6.750996 7.752646 5.374477 2.7543-1.341499-.899733-10.183906-7.67372-9.529643z" style="fill:#354044;fill-opacity:1;fill-rule:nonzero;stroke:none;stroke-width:.264583;stroke-linecap:butt;stroke-dasharray:none;stroke-opacity:1;paint-order:stroke fill markers" transform="translate(-60.302301 -82.92399)"/>
    <path d="M96.605979 107.59061c-.110627 3.17477-.222695 6.47487 1.024439 9.4678.633578 1.70187 1.858088 3.66608 3.885342 3.71509 2.41557-.0971 3.35625-2.10857 4.24626-4.10108 1.17802-2.7673 2.39831-8.90646 2.6563-9.39762 1.28898-.0537-.93215 12.43832 2.02472 12.46438 4.08795-.0583.23707-19.42456 6.83612-19.60354 1.9997.0271 1.61901 6.74507 1.96226 15.97468.0488 1.11059 1.15535 3.79003 2.98565 3.69793 1.19089.003 1.02368-2.6027 1.00557-3.96668.15386-3.77521.14763-7.99512-.47296-11.73188-.39972-2.61464-.43843-5.512022-2.14638-7.683483-1.78334-1.554932-3.48071-1.49224-5.22588-.64707-9.49429 6.213823-2.25444 10.454063-4.90613 1.370071-.30402-.88091-2.25335-1.312433-3.12266.127966-.84749 1.155374-2.23395 19.392426-5.66349 19.518576-3.211294-.96453-1.44364-9.81488-1.15081-11.01736.16194-1.18731 1.5805-7.421803 1.16748-8.584361-.62797-1.332564-2.328679-1.426701-3.132029 1.116308-.80335 2.543013-1.691123 5.880393-1.973802 9.280243z" style="fill:#354044;fill-opacity:1;stroke:none;stroke-width:.264583;stroke-linecap:butt;stroke-dasharray:none;stroke-opacity:1;paint-order:stroke fill markers" transform="translate(-60.302301 -82.92399)"/>
    <g transform="translate(-60.302301 -82.92399)">
    <ellipse cx="145.11696" cy="103.65498" rx="21.252529" ry="20.730995" style="fill:#f45334;fill-opacity:1;stroke:none;stroke-width:.23664;stroke-linecap:butt;stroke-dasharray:none;stroke-opacity:1;paint-order:stroke fill markers"/>
        <path d="M137.53309 98.091506c-.75162 4.517384-2.06407 8.335404-3.63034 12.617194-.57945 1.65601-1.29928 2.62688-1.29484 4.4039.00071.84399 1.02805 2.00002 1.95238 2.05809 1.35204.0792 5.33862-2.10959 8.9721-.92501 1.11875.3565 2.51904 1.08097 3.55473.14163 1.60907-2.69919-3.98865-3.72238-11.075-2.4794 1.06665-1.91993 2.21259-4.25974 3.03913-6.28547 1.17036-3.44419 2.52763-7.731793 2.57835-11.416858.00092-1.670869-.81547-2.705697-2.91038-3.548856-1.73888-.638921-3.65475-.131375-5.31595.517718-1.90523.786793-3.61986 2.226765-4.44033 4.145342-.23384.858681 1.7867 1.542906 2.38102 1.10472 2.06003-2.334966 7.36164-4.883331 6.18913-.333005z" style="fill:#fff;fill-opacity:1;stroke:none;stroke-width:.264583;stroke-linecap:butt;stroke-dasharray:none;stroke-opacity:1;paint-order:stroke fill markers"/>
        <path d="M142.79654 107.58761c.0534 1.0207 1.04822 1.53984 1.97453 1.33417 1.16251-.2302 2.20451-.86618 3.25897-1.34594 6.30118-3.37417 12.41532-1.15219 13.04621-4.42265.51395-1.77375-8.3759-.80491-14.36753 1.67703.0587-3.23006 3.63522-14.665979.71989-14.57212-3.63747-.08121-4.70416 16.42202-4.63207 17.32951z" style="fill:#fff;fill-opacity:1;stroke:none;stroke-width:.256202;stroke-linecap:butt;stroke-dasharray:none;stroke-opacity:1;paint-order:stroke fill markers"/>
        <path d="M153.8579 97.134077c-.78402 5.155173-.80113 9.646593-1.03605 14.855953-.0618 1.00086-.0456 2.02252.0802 3.0113.16751.94973.53895 2.34268 1.63181 1.53218.86295-.59498 1.79104-2.49104 1.92635-3.48725.71043-3.71526 1.33012-13.188202 1.5253-18.297388-.047-1.525005.0256-4.583832-1.40649-4.540753-1.71276-.144012-2.17857 3.337756-2.72112 6.925958z" style="fill:#fff;fill-opacity:1;stroke:none;stroke-width:.248376;stroke-linecap:butt;stroke-dasharray:none;stroke-opacity:1;paint-order:stroke fill markers"/>
  </g>
</svg>